M48
; DRILL file {KiCad 9.0.4} date 2026-03-25T22:02:48-0500
; FORMAT={-:-/ absolute / metric / decimal}
; #@! TF.CreationDate,2026-03-25T22:02:48-05:00
; #@! TF.GenerationSoftware,Kicad,Pcbnew,9.0.4
; #@! TF.FileFunction,Plated,1,2,PTH
FMAT,2
METRIC
; #@! TA.AperFunction,Plated,PTH,ComponentDrill
T1C0.600
; #@! TA.AperFunction,Plated,PTH,ComponentDrill
T2C0.800
; #@! TA.AperFunction,Plated,PTH,ComponentDrill
T3C0.900
; #@! TA.AperFunction,Plated,PTH,ComponentDrill
T4C1.100
; #@! TA.AperFunction,Plated,PTH,ComponentDrill
T5C1.300
%
G90
G05
T1
X98.475Y-98.425
X100.475Y-98.425
X133.675Y-105.475
X135.675Y-105.475
X137.075Y-92.375
X139.075Y-92.375
T2
X100.325Y-75.8
X106.07Y-101.3
X110.485Y-75.8
X116.23Y-101.3
X131.38Y-82.397
X141.54Y-82.397
X146.805Y-82.397
X148.03Y-69.672
X148.03Y-74.672
X149.305Y-82.397
T3
X93.35Y-75.85
X95.89Y-75.85
T4
X106.065Y-95.025
X115.995Y-68.097
X115.995Y-75.722
X116.225Y-95.025
X122.345Y-88.347
X125.03Y-98.873
X126.155Y-68.097
X126.155Y-75.722
X127.57Y-98.873
X130.11Y-98.873
X131.505Y-68.097
X131.57Y-75.722
X132.505Y-88.347
X141.665Y-68.097
X141.73Y-75.722
T5
X98.9Y-55.35
X98.9Y-60.35
X98.9Y-65.35
X125.13Y-113.772
X126.05Y-52.95
X130.21Y-113.772
X131.13Y-52.95
M30
